<svg width="16" height="17" viewBox="0 0 16 17" fill="none" xmlns="http://www.w3.org/2000/svg">
<path d="M7.80892 0C3.48927 0 0 3.60878 0 8.07712C0 12.5455 3.48895 16.1542 7.80892 16.1542C12.1289 16.1542 15.6178 12.5455 15.6178 8.07712C15.6178 3.60878 12.1289 0 7.80892 0ZM10.7441 11.1128C10.5779 11.4564 10.3564 11.7429 10.0795 12.0293C9.74723 12.3157 9.41495 12.4875 9.02728 12.6594C8.86114 12.7167 8.695 12.7739 8.47348 12.7739V14.4924H7.14436V12.8312C6.70132 12.8312 6.31366 12.7167 5.87062 12.6021C5.37219 12.4302 4.92915 12.2584 4.59687 12.0865V10.3681H4.65225C4.76301 10.4826 4.92915 10.5972 5.09529 10.7118C5.26143 10.8263 5.48295 10.9409 5.75985 11.1128L6.59056 11.4564C6.7567 11.5137 6.92284 11.5137 7.08898 11.571C7.25512 11.571 7.36588 11.6283 7.53202 11.6283C7.75354 11.6283 8.03044 11.6283 8.30734 11.5137H8.4181C8.63962 11.4564 8.80576 11.3992 8.91652 11.3419C9.08266 11.2273 9.24881 11.1128 9.30419 10.9409C9.41495 10.7691 9.41495 10.5972 9.41495 10.3108C9.41495 9.96711 9.30419 9.6807 9.13805 9.50885C8.9719 9.337 8.75038 9.22244 8.4181 9.10787C8.36272 8.99331 8.25196 8.99331 8.1412 8.93603C7.97506 8.87875 7.69816 8.82146 7.42126 8.76418C7.3105 8.76418 7.19974 8.7069 7.14436 8.7069C6.92284 8.64962 6.7567 8.59233 6.59056 8.53505C5.92599 8.30592 5.42757 8.01951 5.15067 7.61854C4.81839 7.21756 4.65225 6.70202 4.65225 6.1292C4.65225 5.32725 4.92915 4.63986 5.53833 4.12432C5.98138 3.78063 6.4798 3.5515 7.14436 3.43693V1.71847H8.47348V3.37965C8.80576 3.37965 9.08266 3.43693 9.41495 3.5515C9.91337 3.66606 10.301 3.83791 10.6333 4.00976V5.67094H10.5779C10.1903 5.38453 9.80261 5.09812 9.30419 4.92627C9.02728 4.81171 8.75038 4.75442 8.47348 4.69714C8.30734 4.69714 8.08582 4.63986 7.91968 4.63986C7.64278 4.63986 7.36588 4.69714 7.14436 4.75442C6.97822 4.81171 6.81208 4.86899 6.70132 4.98355C6.36904 5.21268 6.2029 5.49909 6.2029 5.95735C6.2029 6.35833 6.31366 6.64474 6.4798 6.81658C6.64594 6.98843 6.86746 7.103 7.14436 7.21756C7.25512 7.21756 7.3105 7.27484 7.42126 7.33212C7.64278 7.38941 7.8643 7.44669 8.1412 7.50397C8.25196 7.50397 8.36272 7.56125 8.4181 7.56125C8.58424 7.61854 8.80576 7.61854 8.9719 7.67582C9.63647 7.84766 10.1349 8.13408 10.4118 8.53505C10.7441 8.93603 10.9102 9.45157 10.9102 10.139C10.9656 10.4254 10.9102 10.7691 10.7441 11.1128Z" fill="#111111"/>
</svg>
